<svg xmlns="http://www.w3.org/2000/svg"  viewBox="0 0 100 100" width="100px" height="100px"><path fill="#c7ede6" d="M50,12c-20.987,0-38,17.013-38,38s17.013,38,38,38s38-17.013,38-38S70.987,12,50,12z"/><path fill="#f1bc19" d="M78,13c-0.552,0-1,0.448-1,1s0.448,1,1,1s1-0.448,1-1S78.552,13,78,13z"/><path fill="#f1bc19" d="M84,12c-2.209,0-4,1.791-4,4s1.791,4,4,4s4-1.791,4-4S86.209,12,84,12z"/><path fill="#ee3e54" d="M14,24c-1.105,0-2,0.895-2,2s0.895,2,2,2s2-0.895,2-2S15.105,24,14,24z"/><path fill="#fbcd59" d="M78,75c-1.105,0-2,0.895-2,2s0.895,2,2,2s2-0.895,2-2S79.105,75,78,75z M17,74 c-2.209,0-4,1.791-4,4s1.791,4,4,4s4-1.791,4-4S19.209,74,17,74z"/><path fill="#ee3e54" d="M24,81c-1.105,0-2,0.895-2,2s0.895,2,2,2s2-0.895,2-2S25.105,81,24,81z"/><path fill="#fff" d="M66.483,76.034c-1.371,0-2.483,1.112-2.483,2.483S65.112,81,66.483,81s2.483-1.112,2.483-2.483 S67.854,76.034,66.483,76.034z M16,47c-0.552,0-1,0.448-1,1s0.448,1,1,1c0.552,0,1-0.448,1-1S16.552,47,16,47z"/><path fill="#f1bc19" d="M86,30c-0.552,0-1,0.448-1,1s0.448,1,1,1s1-0.448,1-1S86.552,30,86,30z"/><path fill="#fff" d="M80,64c-1.105,0-2,0.895-2,2s0.895,2,2,2s2-0.895,2-2S81.105,64,80,64z"/><circle cx="58.846" cy="34.89" r="5.897" fill="#ef9922"/><path fill="#ef9922" d="M72.134,43.365c-0.531-1.882-2.489-2.976-4.366-2.443c-1.881,0.531-2.975,2.486-2.443,4.366 c0.396,1.407,0.598,2.869,0.598,4.345c0,8.78-7.143,15.923-15.923,15.923c-0.099,0-0.195-0.013-0.293-0.015 c2.64-1.53,4.421-4.379,4.421-7.651c0-4.885-3.961-8.846-8.846-8.846s-8.846,3.961-8.846,8.846c0,0.015,0.002,0.029,0.002,0.045 c-1.487-2.42-2.361-5.257-2.361-8.301c0-7.095,4.762-13.395,11.578-15.324c1.88-0.532,2.973-2.488,2.442-4.368 c-0.532-1.88-2.485-2.972-4.368-2.442C33.88,30.287,27,39.389,27,49.634c0,12.682,10.318,23,23,23s23-10.318,23-23 C73,47.506,72.709,45.397,72.134,43.365z"/><path fill="#472b29" d="M58.846,30.172c2.602,0,4.718,2.116,4.718,4.718s-2.116,4.718-4.718,4.718 c-2.602,0-4.718-2.116-4.718-4.718S56.244,30.172,58.846,30.172 M58.846,28.993c-3.257,0-5.897,2.641-5.897,5.897 s2.641,5.897,5.897,5.897s5.897-2.641,5.897-5.897S62.103,28.993,58.846,28.993L58.846,28.993z"/><path fill="#472b29" d="M44.693,28.546L44.693,28.546c1.05,0,1.983,0.707,2.269,1.717c0.171,0.606,0.097,1.242-0.211,1.793 c-0.308,0.55-0.811,0.947-1.417,1.119c-7.323,2.071-12.438,8.839-12.438,16.459c0,3.135,0.876,6.219,2.536,8.919 c0.218,0.356,0.603,0.563,1.005,0.563c0.107,0,0.216-0.015,0.323-0.045c0.508-0.145,0.859-0.611,0.856-1.139 c0-0.017-0.001-0.044-0.002-0.067c0.015-4.214,3.449-7.64,7.667-7.64c4.227,0,7.667,3.439,7.667,7.667 c0,2.72-1.468,5.261-3.833,6.631c-0.458,0.265-0.683,0.803-0.551,1.316c0.132,0.513,0.59,0.874,1.119,0.883l0.073,0.005 c0.08,0.006,0.16,0.011,0.243,0.011c9.43,0,17.103-7.673,17.103-17.103c0-1.584-0.217-3.154-0.644-4.667 c-0.171-0.606-0.097-1.242,0.211-1.792c0.308-0.55,0.811-0.947,1.419-1.119c0.211-0.06,0.427-0.09,0.643-0.09 c1.049,0,1.98,0.707,2.267,1.72c0.546,1.927,0.822,3.929,0.822,5.947c0,12.032-9.789,21.821-21.821,21.821 s-21.821-9.789-21.821-21.821c0-9.72,6.526-18.355,15.869-20.998C44.261,28.576,44.476,28.546,44.693,28.546 M44.693,27.366 c-0.318,0-0.642,0.044-0.964,0.133C33.88,30.287,27,39.389,27,49.634c0,12.682,10.318,23,23,23s23-10.318,23-23 c0-2.128-0.291-4.237-0.866-6.269c-0.44-1.559-1.86-2.578-3.402-2.578c-0.32,0-0.643,0.044-0.965,0.136 c-1.881,0.531-2.975,2.486-2.443,4.366c0.396,1.407,0.598,2.869,0.598,4.345c0,8.78-7.143,15.923-15.923,15.923 c-0.099,0-0.195-0.013-0.293-0.015c2.64-1.53,4.421-4.379,4.421-7.651c0-4.885-3.961-8.846-8.846-8.846s-8.846,3.961-8.846,8.846 c0,0.015,0.002,0.029,0.002,0.045c-1.487-2.42-2.361-5.257-2.361-8.301c0-7.095,4.762-13.395,11.578-15.324 c1.88-0.532,2.973-2.488,2.442-4.368C47.656,28.383,46.237,27.366,44.693,27.366L44.693,27.366z"/><g><path fill="#472b29" d="M47.695,62.368c-0.101,0-0.201-0.053-0.255-0.147c-0.081-0.14-0.033-0.321,0.107-0.402 c1.404-0.814,2.275-2.319,2.275-3.928c0-0.163,0.132-0.295,0.295-0.295s0.295,0.132,0.295,0.295c0,1.819-0.984,3.518-2.569,4.437 C47.797,62.355,47.746,62.368,47.695,62.368z M40.449,58.215c-0.163,0-0.295-0.132-0.295-0.295l-0.001-0.088 c0.04-2.802,2.341-5.071,5.131-5.071c1.144,0,2.226,0.368,3.129,1.066c0.129,0.1,0.152,0.285,0.053,0.415 c-0.1,0.129-0.285,0.153-0.414,0.053c-0.799-0.618-1.756-0.945-2.768-0.945c-2.467,0-4.504,2.007-4.541,4.475l0.001,0.094 C40.743,58.081,40.611,58.215,40.449,58.215z"/></g></svg>